<?xml version="1.0" encoding="utf-8"?>
<!DOCTYPE svg PUBLIC "-//W3C//DTD SVG 20010904//EN" "http://www.w3.org/TR/2001/REC-SVG-20010904/DTD/svg10.dtd">
<svg version="1.0" xmlns="http://www.w3.org/2000/svg" width="164" height="199" viewBox="0 0 669 669" style="" preserveAspectRatio="xMidYMid meet">
<g fill="#050D0AFF" stroke="#050D0AFF">
<path d="M 329.000 258.000 L 329.000 407.000 310.503 407.000 L 292.007 407.000 291.753 266.853 L 291.500 126.707 282.250 134.506 L 273.000 142.305 273.000 274.653 L 273.000 407.000 263.500 407.000 L 254.000 407.000 254.000 294.500 C 254.000 232.625 253.631 182.000 253.179 182.000 C 252.728 182.000 247.768 185.874 242.158 190.610 L 231.957 199.219 232.228 217.775 L 232.500 236.330 239.176 230.665 C 242.848 227.549 246.111 225.000 246.426 225.000 C 246.742 225.000 247.000 265.950 247.000 316.000 L 247.000 407.000 230.500 407.000 L 214.000 407.000 214.000 329.059 C 214.000 286.191 213.655 250.905 213.234 250.645 C 212.813 250.384 208.313 253.600 203.234 257.790 L 194.000 265.409 194.000 275.205 C 194.000 280.592 194.217 285.000 194.482 285.000 C 194.748 285.000 197.906 283.200 201.500 281.000 C 205.094 278.800 208.252 277.000 208.518 277.000 C 208.783 277.000 209.000 306.250 209.000 342.000 L 209.000 407.000 169.500 407.000 L 130.000 407.000 130.000 414.500 L 130.000 422.000 334.000 422.000 L 538.000 422.000 538.000 414.500 L 538.000 407.000 500.500 407.000 L 463.000 407.000 463.000 323.230 L 463.000 239.461 457.980 235.480 C 455.219 233.291 452.519 231.350 451.980 231.167 C 451.345 230.951 451.000 261.819 451.000 318.917 L 451.000 407.000 437.500 407.000 L 424.000 407.000 423.993 304.750 L 423.986 202.500 417.932 197.500 C 414.603 194.750 411.456 192.350 410.939 192.167 C 410.357 191.960 410.000 232.758 410.000 299.417 L 410.000 407.000 392.993 407.000 L 375.985 407.000 376.243 277.150 L 376.500 147.301 374.312 145.650 C 373.108 144.743 371.871 144.000 371.562 144.000 C 371.253 144.000 371.000 203.175 371.000 275.500 L 371.000 407.000 353.500 407.000 L 336.000 407.000 336.000 260.068 L 336.000 113.136 333.096 111.068 C 331.498 109.931 329.923 109.000 329.596 109.000 C 329.268 109.000 329.000 176.050 329.000 258.000 "/></g>
<g fill="#C69630FF" stroke="#C69630FF">
<path d="M 465.687 432.091 C 450.471 433.698 438.417 437.827 427.374 445.212 C 410.845 456.268 403.057 472.375 403.017 495.590 C 402.980 517.236 410.407 533.380 425.686 544.868 C 439.673 555.384 456.320 560.025 480.500 560.150 C 498.400 560.243 510.687 558.370 526.500 553.139 L 537.500 549.500 537.764 516.735 L 538.027 483.971 507.917 484.235 L 477.806 484.500 472.948 496.000 C 470.275 502.325 468.069 508.063 468.044 508.750 C 468.010 509.711 472.743 510.000 488.500 510.000 L 509.000 510.000 509.000 520.420 L 509.000 530.840 502.053 532.420 C 493.069 534.463 473.680 534.484 465.093 532.460 C 451.281 529.204 439.048 519.458 435.349 508.762 C 432.931 501.769 432.919 489.264 435.324 482.312 C 438.764 472.371 447.961 463.903 459.735 459.836 C 465.734 457.765 468.312 457.501 482.500 457.511 C 500.246 457.523 506.220 458.640 520.331 464.584 L 528.162 467.883 530.426 462.691 C 531.671 459.836 533.969 454.204 535.532 450.175 C 538.863 441.591 539.237 442.134 527.500 438.519 C 506.658 432.100 485.972 429.949 465.687 432.091 "/></g>
<g fill="#C69630FF" stroke="#C69630FF">
<path d="M 321.000 431.654 C 289.367 434.667 270.225 445.636 259.546 466.869 C 251.938 481.995 252.176 509.483 260.051 525.169 C 268.437 541.875 285.006 553.400 307.482 558.162 C 313.915 559.525 320.801 560.095 331.500 560.150 C 349.400 560.243 361.687 558.370 377.500 553.139 L 388.500 549.500 388.764 516.735 L 389.027 483.971 358.917 484.235 L 328.806 484.500 323.948 496.000 C 321.275 502.325 319.069 508.063 319.044 508.750 C 319.010 509.711 323.743 510.000 339.500 510.000 L 360.000 510.000 360.000 520.420 L 360.000 530.840 353.053 532.420 C 344.069 534.463 324.680 534.484 316.093 532.460 C 302.281 529.204 290.048 519.458 286.349 508.762 C 283.932 501.771 283.919 489.264 286.323 482.318 C 289.831 472.177 298.770 463.974 310.865 459.793 C 316.714 457.772 319.396 457.501 333.500 457.511 C 351.246 457.523 357.220 458.640 371.331 464.584 L 379.162 467.883 381.426 462.691 C 382.671 459.836 384.969 454.204 386.532 450.175 C 389.863 441.591 390.237 442.134 378.500 438.519 C 359.589 432.695 337.614 430.071 321.000 431.654 "/></g>
<g fill="#C69630FF" stroke="#C69630FF">
<path d="M 134.000 451.049 L 134.000 468.098 140.375 464.533 L 146.750 460.967 174.125 461.234 L 201.500 461.500 165.795 498.500 L 130.091 535.500 130.045 546.750 L 130.000 558.000 189.500 558.000 L 249.000 558.000 249.000 541.000 C 249.000 531.650 248.799 524.000 248.554 524.000 C 248.308 524.000 245.409 525.581 242.111 527.514 L 236.115 531.029 205.127 530.764 L 174.140 530.500 209.513 494.000 L 244.887 457.500 244.943 445.750 L 245.000 434.000 189.500 434.000 L 134.000 434.000 134.000 451.049 "/></g>
<g fill="#C69630FF" stroke="#C69630FF">
<path d="M 301.250 118.616 L 292.000 126.262 292.000 266.631 L 292.000 407.000 301.503 407.000 L 311.007 407.000 310.753 258.984 L 310.500 110.969 301.250 118.616 "/></g>
<g fill="#C69630FF" stroke="#C69630FF">
<path d="M 336.000 260.345 L 336.000 407.000 339.000 407.000 L 342.000 407.000 342.000 326.064 L 342.000 245.127 349.473 238.814 L 356.946 232.500 356.973 181.858 L 357.000 131.215 348.250 123.939 C 343.438 119.937 338.713 115.993 337.750 115.176 C 336.085 113.762 336.000 120.774 336.000 260.345 "/></g>
<g fill="#C69630FF" stroke="#C69630FF">
<path d="M 424.000 304.927 L 424.000 407.000 430.500 407.000 L 437.000 407.000 437.000 310.167 L 437.000 213.335 432.782 209.917 C 430.462 208.038 427.537 205.680 426.282 204.677 L 424.000 202.855 424.000 304.927 "/></g>
<g fill="#C69630FF" stroke="#C69630FF">
<path d="M 376.000 277.417 L 376.000 407.000 378.500 407.000 L 381.000 407.000 381.000 308.640 L 381.000 210.280 388.500 204.000 L 396.000 197.720 395.943 180.610 L 395.885 163.500 386.780 156.000 C 381.771 151.875 377.297 148.350 376.837 148.167 C 376.377 147.983 376.000 206.146 376.000 277.417 "/></g>
<g fill="#C69630FF" stroke="#C69630FF">
<path d="M 463.000 323.370 L 463.000 407.000 468.506 407.000 L 474.012 407.000 473.756 327.880 L 473.500 248.759 468.250 244.250 L 463.000 239.741 463.000 323.370 "/></g>
<g fill="#C69630FF" stroke="#C69630FF">
<path d="M 256.500 178.482 L 253.500 180.871 253.758 293.935 L 254.017 407.000 257.508 407.000 L 261.000 407.000 261.000 291.500 C 261.000 227.975 260.663 176.021 260.250 176.047 C 259.838 176.073 258.150 177.169 256.500 178.482 "/></g>
<g fill="#C69630FF" stroke="#C69630FF">
<path d="M 215.500 247.584 C 213.524 248.895 213.503 249.874 213.762 327.956 C 214.021 406.166 214.045 407.000 216.018 407.000 C 217.995 407.000 218.010 406.338 217.756 326.628 C 217.501 246.508 217.494 246.260 215.500 247.584 "/></g>
</svg>
