<svg width="88" height="84" viewBox="0 0 88 84" fill="none" xmlns="http://www.w3.org/2000/svg">
<g clip-path="url(#clip0)">
<path fill-rule="evenodd" clip-rule="evenodd" d="M38.7234 79.0572C37.6371 78.891 36.5507 78.7981 35.7609 78.8578C34.4574 78.9774 33.0944 79.5686 31.9886 80.3327C30.9155 81.1099 30.0266 82.0133 29.6843 82.8104C31.6658 83.5212 34.4836 83.9729 36.7681 83.953C38.8615 83.9729 41.1922 82.2059 42.0611 80.2395C42.456 79.3495 43.1672 79.4492 42.7326 78.4791C42.1598 77.1971 41.3632 75.563 40.5404 74.4802C38.7826 72.2482 35.0103 70.242 33.1998 69.5312C34.0228 71.1056 34.9247 73.0453 36.2546 75.0381C36.7484 75.7756 37.4856 76.5196 38.348 77.2039C39.3685 78.0143 40.0202 78.3663 41.1328 78.9973L42.3837 79.7015L41.3238 79.5288C40.4613 79.3827 39.5989 79.1901 38.7234 79.0572Z" fill="url(#paint0_linear)"/>
<path fill-rule="evenodd" clip-rule="evenodd" d="M29.9612 75.8552C29.0064 75.5098 28.0321 75.2243 27.3014 75.1379C26.0968 75.0115 24.7536 75.3038 23.608 75.7955C22.4955 76.3069 21.5212 76.9713 21.0736 77.6355C22.7523 78.6454 25.2276 79.5553 27.3147 79.9539C29.2171 80.3459 31.6531 79.1635 32.7854 77.5361C33.2989 76.7986 33.9309 77.0179 33.707 76.0612C33.4107 74.7925 32.9764 73.1582 32.4167 72.029C31.2185 69.6839 28.1442 67.1795 26.6167 66.2031C27.0908 67.784 27.5581 69.7106 28.4205 71.7633C28.7365 72.5205 29.2765 73.3309 29.9412 74.1081C30.7248 75.0316 31.2515 75.4634 32.1534 76.2407L33.1671 77.1043L32.239 76.752C31.4819 76.4665 30.7313 76.1342 29.9612 75.8552Z" fill="url(#paint1_linear)"/>
<path fill-rule="evenodd" clip-rule="evenodd" d="M22.3045 72.3489C21.442 71.8108 20.5466 71.3259 19.8487 71.0933C18.6967 70.7146 17.3208 70.7214 16.1029 70.9606C14.9047 71.2262 13.825 71.6713 13.2457 72.2293C14.6808 73.5645 16.9191 74.9794 18.8744 75.8032C20.6585 76.587 23.2788 75.9427 24.7271 74.5809C25.3788 73.9698 25.9582 74.3152 25.9385 73.3321C25.912 72.0299 25.8264 70.3427 25.5104 69.1204C24.8192 66.5694 22.3307 63.4806 21.0404 62.2051C21.1787 63.8459 21.2378 65.8322 21.6592 68.0176C21.8172 68.8215 22.1794 69.7314 22.6664 70.635C23.2458 71.7046 23.6672 72.2358 24.3913 73.1858L25.2011 74.242L24.3651 73.7039C23.6672 73.2656 22.9957 72.7807 22.3045 72.3489Z" fill="url(#paint2_linear)"/>
<path fill-rule="evenodd" clip-rule="evenodd" d="M15.9584 66.8011C15.2013 66.2164 14.4112 65.6716 13.7857 65.3861C12.7455 64.9211 11.4552 64.7949 10.2967 64.9012C9.15116 65.0341 8.09776 65.3463 7.50517 65.8113C8.71658 67.1996 10.6719 68.7408 12.423 69.704C14.0096 70.6074 16.5245 70.2554 18.0058 69.1328C18.6773 68.6212 19.1775 69.0064 19.2566 68.0766C19.3552 66.8607 19.4344 65.2731 19.2566 64.0973C18.855 61.6462 16.8206 58.5174 15.7345 57.1953C15.708 58.7432 15.5765 60.6099 15.7607 62.6891C15.8266 63.4595 16.0767 64.3432 16.4521 65.2333C16.8932 66.2895 17.2354 66.8275 17.8213 67.7842L18.4798 68.8538L17.7489 68.2692C17.1433 67.7842 16.5705 67.2727 15.9584 66.8011Z" fill="url(#paint3_linear)"/>
<path fill-rule="evenodd" clip-rule="evenodd" d="M10.527 60.184C9.92792 59.4335 9.28267 58.7293 8.74296 58.304C7.83435 57.6066 6.61644 57.1814 5.4577 57.0086C4.3189 56.8692 3.21934 56.9223 2.53484 57.2345C3.39057 58.8688 4.93772 60.8218 6.41898 62.1703C7.75546 63.4259 10.2834 63.6782 11.9818 62.9276C12.7522 62.5888 13.1538 63.0805 13.4369 62.197C13.8186 61.0343 14.2596 59.5131 14.3585 58.3307C14.5362 55.8527 13.2789 52.3321 12.5283 50.791C12.1398 52.2921 11.5869 54.0724 11.2841 56.1385C11.1721 56.9024 11.2117 57.8191 11.3695 58.7691C11.554 59.8985 11.7647 60.5096 12.1136 61.5723L12.5085 62.7683L11.9292 62.0308C11.4551 61.4197 11.0141 60.7886 10.527 60.184Z" fill="url(#paint4_linear)"/>
<path fill-rule="evenodd" clip-rule="evenodd" d="M6.93865 51.7093C6.55695 50.8258 6.12238 49.9688 5.70774 49.4174C5.01631 48.5073 3.9499 47.77 2.88328 47.2985C1.81688 46.8599 0.743752 46.6207 -0.0001297 46.7337C0.401506 48.5405 1.3823 50.839 2.45542 52.5329C3.4167 54.1007 5.78663 55.0109 7.62336 54.745C8.45285 54.6254 8.7097 55.2035 9.22318 54.4262C9.89467 53.4098 10.7177 52.0548 11.1193 50.9386C11.9356 48.5936 11.6458 44.8603 11.3233 43.1797C10.5597 44.5216 9.55242 46.096 8.72292 48.0092C8.4134 48.7132 8.21595 49.61 8.11711 50.5733C7.99877 51.7093 8.04472 52.3536 8.10411 53.4763L8.16978 54.7319L7.80781 53.8683C7.50501 53.1507 7.24817 52.4201 6.93865 51.7093Z" fill="url(#paint5_linear)"/>
<path fill-rule="evenodd" clip-rule="evenodd" d="M5.62891 42.1027C5.51707 41.1462 5.35256 40.2028 5.11544 39.5452C4.72052 38.4691 3.91074 37.4459 3.02857 36.682C2.13968 35.9448 1.17862 35.3999 0.434736 35.2937C0.29645 37.1405 0.566299 39.625 1.0995 41.5647C1.56703 43.345 3.56178 44.9193 5.39851 45.2049C6.22801 45.3378 6.30712 45.9622 7.01806 45.3776C7.9529 44.6004 9.13786 43.5509 9.8488 42.6075C11.3103 40.6079 12.1136 36.9544 12.2979 35.2539C11.1788 36.3101 9.7634 37.5191 8.4137 39.1001C7.91345 39.6847 7.45914 40.4818 7.09045 41.3721C6.64937 42.4215 6.50458 43.0527 6.23473 44.1421L5.93171 45.3645L5.83309 44.4276C5.75398 43.6438 5.72103 42.8732 5.62891 42.1027Z" fill="url(#paint6_linear)"/>
<path fill-rule="evenodd" clip-rule="evenodd" d="M6.62952 32.544C6.78081 31.594 6.87315 30.6373 6.82698 29.9464C6.73486 28.8039 6.23438 27.6016 5.58934 26.6184C4.93085 25.6685 4.15403 24.8779 3.46953 24.5723C2.83749 26.3062 2.42936 28.7774 2.42264 30.7901C2.38969 32.6303 3.8909 34.6962 5.58262 35.4734C6.34645 35.8254 6.25433 36.4566 7.09683 36.0779C8.2029 35.5864 9.62499 34.9021 10.5663 34.1848C12.5084 32.6635 14.2727 29.362 14.9048 27.7743C13.5421 28.4851 11.8566 29.2555 10.1317 30.4114C9.49321 30.8367 8.84144 31.481 8.24235 32.2318C7.53141 33.1218 7.22861 33.6865 6.67547 34.6629L6.05665 35.7591L6.21466 34.8291C6.33322 34.0652 6.50445 33.3079 6.62952 32.544Z" fill="url(#paint7_linear)"/>
<path fill-rule="evenodd" clip-rule="evenodd" d="M10.6057 23.2043C10.9611 22.3873 11.2639 21.5502 11.3825 20.9191C11.5602 19.8696 11.389 18.6738 11.0402 17.6442C10.6648 16.6344 10.1514 15.7443 9.61166 15.3125C8.64387 16.7208 7.70904 18.8399 7.24151 20.6401C6.7872 22.2811 7.66287 24.4864 8.99263 25.5758C9.59844 26.0741 9.36803 26.6121 10.2108 26.4726C11.3166 26.2934 12.7519 26.0076 13.7524 25.5892C15.846 24.679 18.1832 22.1348 19.1113 20.8594C17.7224 21.1782 16.037 21.4772 14.22 22.1083C13.5485 22.3407 12.8176 22.766 12.1067 23.2972C11.2639 23.9284 10.8625 24.3668 10.1381 25.1108L9.33508 25.9479L9.69056 25.1508C9.98685 24.5063 10.3161 23.862 10.6057 23.2043Z" fill="url(#paint8_linear)"/>
<path fill-rule="evenodd" clip-rule="evenodd" d="M16.2475 15.8496C16.8401 15.1919 17.393 14.4944 17.7023 13.9364C18.2093 12.9998 18.42 11.8107 18.4135 10.7212C18.3805 9.64508 18.1763 8.642 17.7947 8.05078C16.4317 9.0738 14.8716 10.7744 13.8576 12.3355C12.9098 13.7438 13.0348 16.1153 13.9499 17.5834C14.3646 18.2477 13.9762 18.6861 14.8189 18.8256C15.925 19.0116 17.3733 19.2109 18.4594 19.1312C20.7307 18.9452 23.7527 17.2911 25.043 16.381C23.6274 16.2349 21.9354 15.9692 20.0131 15.9824C19.3021 15.9891 18.4791 16.1552 17.6366 16.4275C16.6359 16.753 16.1157 17.032 15.2008 17.5103L14.1736 18.0417L14.7662 17.404C15.2535 16.8726 15.767 16.3744 16.2475 15.8496Z" fill="url(#paint9_linear)"/>
<path fill-rule="evenodd" clip-rule="evenodd" d="M22.752 11.0808C23.3972 10.5959 24.016 10.0645 24.3912 9.61277C25.0035 8.8621 25.3985 7.83246 25.5829 6.85595C25.7342 5.88608 25.7277 4.94278 25.4908 4.35156C24.0949 5.02914 22.403 6.29129 21.2247 7.50694C20.1319 8.60967 19.8356 10.7554 20.4083 12.2301C20.6651 12.901 20.2437 13.2265 20.9744 13.4989C21.9357 13.8576 23.1998 14.2894 24.1873 14.4089C26.2544 14.6415 29.2564 13.6782 30.5664 13.087C29.3223 12.7084 27.8475 12.1769 26.1226 11.8514C25.4841 11.7319 24.7138 11.7385 23.9107 11.8381C22.9561 11.9577 22.4427 12.1172 21.5408 12.3829L20.5268 12.6818L21.1654 12.2101C21.6855 11.8315 22.232 11.4728 22.752 11.0808Z" fill="url(#paint10_linear)"/>
<path fill-rule="evenodd" clip-rule="evenodd" d="M29.7828 7.60666C30.3292 7.19481 30.8559 6.74972 31.1719 6.36445C31.6921 5.72673 32.0279 4.85649 32.1791 4.02613C32.3109 3.2024 32.3042 2.40525 32.1002 1.90039C30.9153 2.47832 29.48 3.54119 28.4859 4.5775C27.5576 5.50751 27.3075 7.32767 27.7947 8.58318C28.0119 9.14783 27.6564 9.42683 28.2753 9.65934C29.0915 9.96492 30.1647 10.3303 31.0009 10.4299C32.752 10.6226 35.2932 9.81212 36.4058 9.3139C35.3524 8.99505 34.1015 8.54332 32.6402 8.26432C32.1002 8.16467 31.4485 8.16467 30.7638 8.25103C29.9607 8.35068 29.5196 8.49017 28.7558 8.71604L27.9001 8.96847L28.4398 8.5699C28.8809 8.24439 29.3417 7.94545 29.7828 7.60666Z" fill="url(#paint11_linear)"/>
<path fill-rule="evenodd" clip-rule="evenodd" d="M36.2547 4.61019C36.8208 4.35111 37.374 4.05883 37.7294 3.77983C38.3153 3.31483 38.7828 2.61066 39.0789 1.89988C39.3555 1.19573 39.5003 0.484935 39.4214 0C38.2561 0.279003 36.7749 0.943298 35.6885 1.66074C34.6813 2.30511 34.1087 3.87284 34.2994 5.08184C34.385 5.62656 34.0098 5.80592 34.5168 6.13142C35.1816 6.56321 36.0637 7.10131 36.7881 7.35374C38.3088 7.87187 40.7249 7.65267 41.811 7.4268C40.9356 6.93524 39.9151 6.28422 38.6643 5.75277C38.2035 5.55349 37.6241 5.42728 36.9988 5.37413C36.2614 5.30106 35.8466 5.34092 35.1224 5.38742L34.3126 5.44057L34.8723 5.19479C35.3266 4.99548 35.8006 4.81612 36.2547 4.61019Z" fill="url(#paint12_linear)"/>
<path fill-rule="evenodd" clip-rule="evenodd" d="M49.2766 79.0572C50.3629 78.891 51.449 78.7981 52.2391 78.8578C53.5426 78.9774 54.9053 79.5686 56.0114 80.3327C57.0845 81.1099 57.9732 82.0133 58.3154 82.8104C56.3339 83.5212 53.5162 83.9729 51.2251 83.953C49.1318 83.9729 46.8013 82.2059 45.9321 80.2395C45.5372 79.3495 44.8263 79.4492 45.2606 78.4791C45.8335 77.1971 46.6301 75.563 47.4531 74.4802C49.2042 72.2482 52.9765 70.242 54.7935 69.5312C53.9705 71.1056 53.0686 73.0453 51.7388 75.0381C51.2451 75.7756 50.5077 76.5196 49.6453 77.2039C48.6248 78.0143 47.973 78.3663 46.8605 78.9973L45.6096 79.7015L46.6695 79.5288C47.5385 79.3827 48.4009 79.1901 49.2766 79.0572Z" fill="url(#paint13_linear)"/>
<path fill-rule="evenodd" clip-rule="evenodd" d="M58.0392 75.8552C58.9937 75.5098 59.968 75.2243 60.6989 75.1379C61.9036 75.0115 63.2466 75.3038 64.3921 75.7955C65.5114 76.3069 66.4791 76.9713 66.9268 77.6355C65.248 78.6454 62.7725 79.5553 60.6857 79.9539C58.7831 80.3459 56.3472 79.1635 55.2149 77.5361C54.7015 76.7986 54.0694 77.0179 54.2933 76.0612C54.5894 74.7925 55.0175 73.1582 55.5836 72.029C56.7818 69.6839 59.8562 67.1795 61.3836 66.2031C60.9096 67.784 60.4421 69.7106 59.5796 71.7633C59.2636 72.5205 58.7239 73.3309 58.0589 74.1081C57.2756 75.0316 56.7489 75.4634 55.847 76.2407L54.833 77.1043L55.7614 76.752C56.5185 76.4665 57.2689 76.1342 58.0392 75.8552Z" fill="url(#paint14_linear)"/>
<path fill-rule="evenodd" clip-rule="evenodd" d="M65.6955 72.3489C66.5578 71.8108 67.4532 71.3259 68.1444 71.0933C69.2965 70.7146 70.6724 70.7214 71.8904 70.9606C73.0885 71.2262 74.1682 71.6713 74.7476 72.2293C73.3124 73.5645 71.0806 74.9794 69.1188 75.8032C67.3347 76.587 64.7145 75.9427 63.2662 74.5809C62.6144 73.9698 62.035 74.3152 62.0548 73.3321C62.0812 72.0299 62.1666 70.3427 62.4826 69.1204C63.1741 66.5694 65.6691 63.4806 66.9528 62.2051C66.8146 63.8459 66.7553 65.8322 66.334 68.0176C66.1825 68.8215 65.8206 69.7314 65.3268 70.635C64.7474 71.7046 64.3261 72.2358 63.5954 73.1858L62.7856 74.242L63.6216 73.7039C64.3326 73.2656 64.9976 72.7807 65.6955 72.3489Z" fill="url(#paint15_linear)"/>
<path fill-rule="evenodd" clip-rule="evenodd" d="M72.0421 66.8011C72.7991 66.2164 73.5892 65.6716 74.2146 65.3861C75.2548 64.9211 76.5451 64.7949 77.7038 64.9012C78.8493 65.0341 79.9026 65.3463 80.4951 65.8113C79.2838 67.1996 77.3285 68.7408 75.5773 69.704C73.9907 70.6074 71.4759 70.2554 69.9946 69.1328C69.3231 68.6212 68.8228 69.0064 68.7438 68.0766C68.645 66.8607 68.566 65.2731 68.7438 64.0973C69.1454 61.6462 71.1796 58.5174 72.2659 57.1953C72.2988 58.7432 72.4239 60.6099 72.2396 62.6891C72.1737 63.4595 71.9236 64.3432 71.5483 65.2333C71.1072 66.2895 70.7649 66.8275 70.179 67.7842L69.5206 68.8538L70.2514 68.2692C70.8571 67.7842 71.4298 67.2727 72.0421 66.8011Z" fill="url(#paint16_linear)"/>
<path fill-rule="evenodd" clip-rule="evenodd" d="M77.4733 60.184C78.0724 59.4335 78.7176 58.7293 79.2574 58.304C80.1659 57.6066 81.3839 57.1814 82.536 57.0086C83.6815 56.8692 84.7809 56.9223 85.459 57.2345C84.6031 58.8688 83.056 60.8218 81.5748 62.1703C80.2384 63.4259 77.7103 63.6782 76.0118 62.9276C75.2416 62.5888 74.84 63.0805 74.5569 62.197C74.1817 61.0343 73.734 59.5131 73.6418 58.3307C73.4641 55.8527 74.7215 52.3321 75.472 50.791C75.8604 52.2921 76.4134 54.0724 76.7162 56.1385C76.8282 56.9024 76.7887 57.8191 76.6307 58.7691C76.4463 59.8985 76.2357 60.5096 75.8868 61.5723L75.4917 62.7683L76.0711 62.0308C76.5451 61.4197 76.9862 60.7886 77.4733 60.184Z" fill="url(#paint17_linear)"/>
<path fill-rule="evenodd" clip-rule="evenodd" d="M81.0611 51.7093C81.443 50.8258 81.8775 49.9688 82.2922 49.4174C82.9835 48.5073 84.05 47.77 85.1165 47.2985C86.183 46.8599 87.2561 46.6207 88 46.7337C87.5984 48.5405 86.6175 50.839 85.5444 52.5329C84.5832 54.1007 82.2132 55.0109 80.3764 54.745C79.547 54.6254 79.2902 55.2035 78.7767 54.4262C78.1052 53.4098 77.2823 52.0548 76.8807 50.9386C76.0643 48.5936 76.354 44.8603 76.6766 43.1797C77.4403 44.5216 78.4409 46.096 79.277 48.0092C79.5799 48.7132 79.7839 49.61 79.8827 50.5733C80.0012 51.7093 79.9551 52.3536 79.8959 53.4763L79.83 54.7319L80.1921 53.8683C80.4949 53.1507 80.7517 52.4201 81.0611 51.7093Z" fill="url(#paint18_linear)"/>
<path fill-rule="evenodd" clip-rule="evenodd" d="M82.3714 42.1027C82.4833 41.1462 82.6479 40.2028 82.8849 39.5452C83.2799 38.4691 84.0897 37.4459 84.9718 36.682C85.8606 35.9448 86.8218 35.3999 87.5657 35.2937C87.7039 37.1405 87.4406 39.625 86.9008 41.5647C86.4333 43.345 84.432 44.9193 82.6018 45.2049C81.7723 45.3378 81.6933 45.9622 80.9823 45.3776C80.0475 44.6004 78.8625 43.5509 78.1514 42.6075C76.69 40.6079 75.8802 36.9544 75.7024 35.2539C76.8282 36.3101 78.237 37.5191 79.5866 39.1001C80.087 39.6847 80.5412 40.4818 80.9165 41.3721C81.3576 42.4215 81.5024 43.0527 81.7723 44.1421L82.0751 45.3645L82.1673 44.4276C82.2463 43.6438 82.2792 42.8732 82.3714 42.1027Z" fill="url(#paint19_linear)"/>
<path fill-rule="evenodd" clip-rule="evenodd" d="M81.3708 32.544C81.2194 31.594 81.1272 30.6373 81.1733 29.9464C81.2655 28.8039 81.7658 27.6016 82.411 26.6184C83.0693 25.6685 83.8462 24.8779 84.5308 24.5723C85.1628 26.3062 85.571 28.7774 85.5776 30.7901C85.6105 32.6303 84.1095 34.6962 82.4176 35.4734C81.6539 35.8254 81.7461 36.4566 80.9034 36.0779C79.7908 35.5864 78.3754 34.9021 77.434 34.1848C75.4919 32.6635 73.7341 29.362 73.0955 27.7743C74.4583 28.4851 76.1436 29.2555 77.875 30.4114C78.5136 30.8367 79.1654 31.481 79.7645 32.2318C80.4755 33.1218 80.7783 33.6865 81.3313 34.6629L81.9502 35.7591L81.7921 34.8291C81.6671 34.0652 81.4893 33.3079 81.3708 32.544Z" fill="url(#paint20_linear)"/>
<path fill-rule="evenodd" clip-rule="evenodd" d="M77.3941 23.2043C77.0386 22.3873 76.7358 21.5502 76.6173 20.9191C76.4395 19.8696 76.6107 18.6738 76.9596 17.6442C77.3349 16.6344 77.8484 15.7443 78.3882 15.3125C79.356 16.7208 80.2908 18.8399 80.7582 20.6401C81.2125 22.2811 80.3369 24.4864 79.0071 25.5758C78.4014 26.0741 78.6318 26.6121 77.7891 26.4726C76.6831 26.2934 75.248 26.0076 74.2473 25.5892C72.1538 24.679 69.8167 22.1348 68.8818 20.8594C70.2709 21.1782 71.9563 21.4772 73.7733 22.1083C74.4448 22.3407 75.1755 22.766 75.8866 23.2972C76.7292 23.9284 77.1308 24.3668 77.8484 25.1108L78.6516 25.9479L78.2961 25.1508C78.013 24.5063 77.6838 23.862 77.3941 23.2043Z" fill="url(#paint21_linear)"/>
<path fill-rule="evenodd" clip-rule="evenodd" d="M71.7521 15.8496C71.1596 15.1919 70.6 14.4944 70.2906 13.9364C69.7903 12.9998 69.573 11.8107 69.5796 10.7212C69.6125 9.64508 69.8166 8.642 70.1919 8.05078C71.5546 9.0738 73.1149 10.7744 74.1287 12.3355C75.0768 13.7438 74.9517 16.1153 74.0366 17.5834C73.6218 18.2477 74.0102 18.6861 73.1676 18.8256C72.0616 19.0116 70.6132 19.2109 69.5269 19.1312C67.2557 18.9452 64.2339 17.2911 62.9436 16.381C64.3589 16.2349 66.0509 15.9692 67.9667 15.9824C68.6777 15.9891 69.5006 16.1552 70.3433 16.4275C71.344 16.753 71.8641 17.032 72.7792 17.5103L73.8062 18.0417L73.2202 17.404C72.7462 16.8726 72.2327 16.3744 71.7521 15.8496Z" fill="url(#paint22_linear)"/>
<path fill-rule="evenodd" clip-rule="evenodd" d="M65.248 11.0808C64.6028 10.5959 63.9839 10.0645 63.6088 9.61277C62.9964 8.8621 62.5948 7.83246 62.4171 6.85595C62.2658 5.88608 62.2723 4.94278 62.5094 4.35156C63.905 5.02914 65.597 6.29129 66.7753 7.50694C67.8682 8.60967 68.1644 10.7554 67.5917 12.2301C67.3349 12.901 67.7563 13.2265 67.0255 13.4989C66.0643 13.8576 64.8002 14.2894 63.8127 14.4089C61.7456 14.6415 58.7436 13.6782 57.4336 13.087C58.6777 12.7084 60.1525 12.1769 61.8774 11.8514C62.5159 11.7319 63.2862 11.7385 64.0893 11.8381C65.0438 11.9577 65.5573 12.1172 66.4659 12.3829L67.4798 12.6818L66.8412 12.2101C66.3144 11.8315 65.768 11.4728 65.248 11.0808Z" fill="url(#paint23_linear)"/>
<path fill-rule="evenodd" clip-rule="evenodd" d="M58.2169 7.60666C57.6705 7.19481 57.1438 6.74972 56.8278 6.36445C56.3078 5.72673 55.9721 4.85649 55.8206 4.02613C55.689 3.2024 55.6955 2.40525 55.8997 1.90039C57.0846 2.47832 58.5197 3.54119 59.514 4.5775C60.4421 5.50751 60.6857 7.32767 60.2052 8.58318C59.9878 9.14783 60.3435 9.42683 59.7244 9.65934C58.9082 9.96492 57.835 10.3303 56.999 10.4299C55.2412 10.6226 52.7068 9.81212 51.594 9.3139C52.6474 8.99505 53.8982 8.54332 55.3598 8.26432C55.8997 8.16467 56.5514 8.16467 57.2359 8.25103C58.0457 8.35068 58.4803 8.49017 59.2439 8.71604L60.0998 8.96847L59.5599 8.5699C59.1188 8.24439 58.658 7.94545 58.2169 7.60666Z" fill="url(#paint24_linear)"/>
<path fill-rule="evenodd" clip-rule="evenodd" d="M51.7387 4.61019C51.1723 4.35111 50.6194 4.05883 50.264 3.77983C49.6781 3.31483 49.2106 2.61066 48.9143 1.89988C48.6379 1.19573 48.4931 0.484935 48.572 0C49.7373 0.279003 51.2185 0.943298 52.3049 1.66074C53.3121 2.30511 53.8847 3.87284 53.6938 5.08184C53.6084 5.62656 53.9836 5.80592 53.4766 6.13142C52.8116 6.56321 51.9294 7.10131 51.2053 7.35374C49.6846 7.87187 47.2685 7.65267 46.1824 7.4268C47.0578 6.93524 48.0783 6.28422 49.3291 5.75277C49.7899 5.55349 50.3693 5.42728 50.9946 5.37413C51.732 5.30106 52.1468 5.34092 52.871 5.38742L53.6808 5.44057L53.1211 5.19479C52.6668 4.99548 52.1995 4.81612 51.7387 4.61019Z" fill="url(#paint25_linear)"/>
</g>
<defs>
<linearGradient id="paint0_linear" x1="31.7444" y1="82.9758" x2="44.3277" y2="69.1478" gradientUnits="userSpaceOnUse">
<stop stop-color="#815A23"/>
<stop offset="0.145833" stop-color="#AC8035"/>
<stop offset="0.286458" stop-color="#D9AF56"/>
<stop offset="0.4375" stop-color="#E1C96A"/>
<stop offset="0.583333" stop-color="#D9AF56"/>
<stop offset="0.723958" stop-color="#AC8035"/>
<stop offset="0.858442" stop-color="#A17631"/>
<stop offset="1" stop-color="#EADD81"/>
<stop offset="1" stop-color="#815A23"/>
</linearGradient>
<linearGradient id="paint1_linear" x1="23.0548" y1="79.0921" x2="35.1144" y2="65.7972" gradientUnits="userSpaceOnUse">
<stop stop-color="#815A23"/>
<stop offset="0.145833" stop-color="#AC8035"/>
<stop offset="0.286458" stop-color="#D9AF56"/>
<stop offset="0.4375" stop-color="#E1C96A"/>
<stop offset="0.583333" stop-color="#D9AF56"/>
<stop offset="0.723958" stop-color="#AC8035"/>
<stop offset="0.858442" stop-color="#A17631"/>
<stop offset="1" stop-color="#EADD81"/>
<stop offset="1" stop-color="#815A23"/>
</linearGradient>
<linearGradient id="paint2_linear" x1="15.229" y1="75.1974" x2="27.3932" y2="61.8798" gradientUnits="userSpaceOnUse">
<stop stop-color="#815A23"/>
<stop offset="0.145833" stop-color="#AC8035"/>
<stop offset="0.286458" stop-color="#D9AF56"/>
<stop offset="0.4375" stop-color="#E1C96A"/>
<stop offset="0.583333" stop-color="#D9AF56"/>
<stop offset="0.723958" stop-color="#AC8035"/>
<stop offset="0.858442" stop-color="#A17631"/>
<stop offset="1" stop-color="#EADD81"/>
<stop offset="1" stop-color="#815A23"/>
</linearGradient>
<linearGradient id="paint3_linear" x1="9.35785" y1="69.3341" x2="20.7231" y2="56.8936" gradientUnits="userSpaceOnUse">
<stop stop-color="#815A23"/>
<stop offset="0.145833" stop-color="#AC8035"/>
<stop offset="0.286458" stop-color="#D9AF56"/>
<stop offset="0.4375" stop-color="#E1C96A"/>
<stop offset="0.583333" stop-color="#D9AF56"/>
<stop offset="0.723958" stop-color="#AC8035"/>
<stop offset="0.858442" stop-color="#A17631"/>
<stop offset="1" stop-color="#EADD81"/>
<stop offset="1" stop-color="#815A23"/>
</linearGradient>
<linearGradient id="paint4_linear" x1="4.38495" y1="62.4975" x2="15.3045" y2="50.1207" gradientUnits="userSpaceOnUse">
<stop stop-color="#815A23"/>
<stop offset="0.145833" stop-color="#AC8035"/>
<stop offset="0.286458" stop-color="#D9AF56"/>
<stop offset="0.4375" stop-color="#E1C96A"/>
<stop offset="0.583333" stop-color="#D9AF56"/>
<stop offset="0.723958" stop-color="#AC8035"/>
<stop offset="0.858442" stop-color="#A17631"/>
<stop offset="1" stop-color="#EADD81"/>
<stop offset="1" stop-color="#815A23"/>
</linearGradient>
<linearGradient id="paint5_linear" x1="1.82004" y1="54.0499" x2="11.8702" y2="41.9805" gradientUnits="userSpaceOnUse">
<stop stop-color="#815A23"/>
<stop offset="0.145833" stop-color="#AC8035"/>
<stop offset="0.286458" stop-color="#D9AF56"/>
<stop offset="0.4375" stop-color="#E1C96A"/>
<stop offset="0.583333" stop-color="#D9AF56"/>
<stop offset="0.723958" stop-color="#AC8035"/>
<stop offset="0.858442" stop-color="#A17631"/>
<stop offset="1" stop-color="#EADD81"/>
<stop offset="1" stop-color="#815A23"/>
</linearGradient>
<linearGradient id="paint6_linear" x1="2.25808" y1="44.9204" x2="10.8949" y2="33.0065" gradientUnits="userSpaceOnUse">
<stop stop-color="#815A23"/>
<stop offset="0.145833" stop-color="#AC8035"/>
<stop offset="0.286458" stop-color="#D9AF56"/>
<stop offset="0.4375" stop-color="#E1C96A"/>
<stop offset="0.583333" stop-color="#D9AF56"/>
<stop offset="0.723958" stop-color="#AC8035"/>
<stop offset="0.858442" stop-color="#A17631"/>
<stop offset="1" stop-color="#EADD81"/>
<stop offset="1" stop-color="#815A23"/>
</linearGradient>
<linearGradient id="paint7_linear" x1="4.37252" y1="35.4069" x2="14.2347" y2="22.6743" gradientUnits="userSpaceOnUse">
<stop stop-color="#815A23"/>
<stop offset="0.145833" stop-color="#AC8035"/>
<stop offset="0.286458" stop-color="#D9AF56"/>
<stop offset="0.4375" stop-color="#E1C96A"/>
<stop offset="0.583333" stop-color="#D9AF56"/>
<stop offset="0.723958" stop-color="#AC8035"/>
<stop offset="0.858442" stop-color="#A17631"/>
<stop offset="1" stop-color="#EADD81"/>
<stop offset="1" stop-color="#815A23"/>
</linearGradient>
<linearGradient id="paint8_linear" x1="8.99393" y1="25.7369" x2="18.4864" y2="13.5009" gradientUnits="userSpaceOnUse">
<stop stop-color="#815A23"/>
<stop offset="0.145833" stop-color="#AC8035"/>
<stop offset="0.286458" stop-color="#D9AF56"/>
<stop offset="0.4375" stop-color="#E1C96A"/>
<stop offset="0.583333" stop-color="#D9AF56"/>
<stop offset="0.723958" stop-color="#AC8035"/>
<stop offset="0.858442" stop-color="#A17631"/>
<stop offset="1" stop-color="#EADD81"/>
<stop offset="1" stop-color="#815A23"/>
</linearGradient>
<linearGradient id="paint9_linear" x1="15.0528" y1="18.3968" x2="24.4858" y2="6.29954" gradientUnits="userSpaceOnUse">
<stop stop-color="#815A23"/>
<stop offset="0.145833" stop-color="#AC8035"/>
<stop offset="0.286458" stop-color="#D9AF56"/>
<stop offset="0.4375" stop-color="#E1C96A"/>
<stop offset="0.583333" stop-color="#D9AF56"/>
<stop offset="0.723958" stop-color="#AC8035"/>
<stop offset="0.858442" stop-color="#A17631"/>
<stop offset="1" stop-color="#EADD81"/>
<stop offset="1" stop-color="#815A23"/>
</linearGradient>
<linearGradient id="paint10_linear" x1="21.7544" y1="13.7602" x2="30.3929" y2="3.01464" gradientUnits="userSpaceOnUse">
<stop stop-color="#815A23"/>
<stop offset="0.145833" stop-color="#AC8035"/>
<stop offset="0.286458" stop-color="#D9AF56"/>
<stop offset="0.4375" stop-color="#E1C96A"/>
<stop offset="0.583333" stop-color="#D9AF56"/>
<stop offset="0.723958" stop-color="#AC8035"/>
<stop offset="0.858442" stop-color="#A17631"/>
<stop offset="1" stop-color="#EADD81"/>
<stop offset="1" stop-color="#815A23"/>
</linearGradient>
<linearGradient id="paint11_linear" x1="28.9346" y1="9.87872" x2="36.2602" y2="0.767904" gradientUnits="userSpaceOnUse">
<stop stop-color="#815A23"/>
<stop offset="0.145833" stop-color="#AC8035"/>
<stop offset="0.286458" stop-color="#D9AF56"/>
<stop offset="0.4375" stop-color="#E1C96A"/>
<stop offset="0.583333" stop-color="#D9AF56"/>
<stop offset="0.723958" stop-color="#AC8035"/>
<stop offset="0.858442" stop-color="#A17631"/>
<stop offset="1" stop-color="#EADD81"/>
<stop offset="1" stop-color="#815A23"/>
</linearGradient>
<linearGradient id="paint12_linear" x1="35.4275" y1="7.15175" x2="42.0547" y2="-0.704666" gradientUnits="userSpaceOnUse">
<stop stop-color="#815A23"/>
<stop offset="0.145833" stop-color="#AC8035"/>
<stop offset="0.286458" stop-color="#D9AF56"/>
<stop offset="0.4375" stop-color="#E1C96A"/>
<stop offset="0.583333" stop-color="#D9AF56"/>
<stop offset="0.723958" stop-color="#AC8035"/>
<stop offset="0.858442" stop-color="#A17631"/>
<stop offset="1" stop-color="#EADD81"/>
<stop offset="1" stop-color="#815A23"/>
</linearGradient>
<linearGradient id="paint13_linear" x1="47.1858" y1="82.9758" x2="59.7685" y2="69.1417" gradientUnits="userSpaceOnUse">
<stop stop-color="#815A23"/>
<stop offset="0.145833" stop-color="#AC8035"/>
<stop offset="0.286458" stop-color="#D9AF56"/>
<stop offset="0.4375" stop-color="#E1C96A"/>
<stop offset="0.583333" stop-color="#D9AF56"/>
<stop offset="0.723958" stop-color="#AC8035"/>
<stop offset="0.858442" stop-color="#A17631"/>
<stop offset="1" stop-color="#EADD81"/>
<stop offset="1" stop-color="#815A23"/>
</linearGradient>
<linearGradient id="paint14_linear" x1="56.2282" y1="79.0921" x2="68.2877" y2="65.7972" gradientUnits="userSpaceOnUse">
<stop stop-color="#815A23"/>
<stop offset="0.145833" stop-color="#AC8035"/>
<stop offset="0.286458" stop-color="#D9AF56"/>
<stop offset="0.4375" stop-color="#E1C96A"/>
<stop offset="0.583333" stop-color="#D9AF56"/>
<stop offset="0.723958" stop-color="#AC8035"/>
<stop offset="0.858442" stop-color="#A17631"/>
<stop offset="1" stop-color="#EADD81"/>
<stop offset="1" stop-color="#815A23"/>
</linearGradient>
<linearGradient id="paint15_linear" x1="64.0376" y1="75.1974" x2="76.2018" y2="61.8798" gradientUnits="userSpaceOnUse">
<stop stop-color="#815A23"/>
<stop offset="0.145833" stop-color="#AC8035"/>
<stop offset="0.286458" stop-color="#D9AF56"/>
<stop offset="0.4375" stop-color="#E1C96A"/>
<stop offset="0.583333" stop-color="#D9AF56"/>
<stop offset="0.723958" stop-color="#AC8035"/>
<stop offset="0.858442" stop-color="#A17631"/>
<stop offset="1" stop-color="#EADD81"/>
<stop offset="1" stop-color="#815A23"/>
</linearGradient>
<linearGradient id="paint16_linear" x1="70.4907" y1="69.3341" x2="81.856" y2="56.8936" gradientUnits="userSpaceOnUse">
<stop stop-color="#815A23"/>
<stop offset="0.145833" stop-color="#AC8035"/>
<stop offset="0.286458" stop-color="#D9AF56"/>
<stop offset="0.4375" stop-color="#E1C96A"/>
<stop offset="0.583333" stop-color="#D9AF56"/>
<stop offset="0.723958" stop-color="#AC8035"/>
<stop offset="0.858442" stop-color="#A17631"/>
<stop offset="1" stop-color="#EADD81"/>
<stop offset="1" stop-color="#815A23"/>
</linearGradient>
<linearGradient id="paint17_linear" x1="75.4739" y1="62.4975" x2="86.3942" y2="50.1267" gradientUnits="userSpaceOnUse">
<stop stop-color="#815A23"/>
<stop offset="0.145833" stop-color="#AC8035"/>
<stop offset="0.286458" stop-color="#D9AF56"/>
<stop offset="0.4375" stop-color="#E1C96A"/>
<stop offset="0.583333" stop-color="#D9AF56"/>
<stop offset="0.723958" stop-color="#AC8035"/>
<stop offset="0.858442" stop-color="#A17631"/>
<stop offset="1" stop-color="#EADD81"/>
<stop offset="1" stop-color="#815A23"/>
</linearGradient>
<linearGradient id="paint18_linear" x1="78.1711" y1="54.0499" x2="88.2213" y2="41.9805" gradientUnits="userSpaceOnUse">
<stop stop-color="#815A23"/>
<stop offset="0.145833" stop-color="#AC8035"/>
<stop offset="0.286458" stop-color="#D9AF56"/>
<stop offset="0.4375" stop-color="#E1C96A"/>
<stop offset="0.583333" stop-color="#D9AF56"/>
<stop offset="0.723958" stop-color="#AC8035"/>
<stop offset="0.858442" stop-color="#A17631"/>
<stop offset="1" stop-color="#EADD81"/>
<stop offset="1" stop-color="#815A23"/>
</linearGradient>
<linearGradient id="paint19_linear" x1="77.5618" y1="44.9204" x2="86.1984" y2="33.0061" gradientUnits="userSpaceOnUse">
<stop stop-color="#815A23"/>
<stop offset="0.145833" stop-color="#AC8035"/>
<stop offset="0.286458" stop-color="#D9AF56"/>
<stop offset="0.4375" stop-color="#E1C96A"/>
<stop offset="0.583333" stop-color="#D9AF56"/>
<stop offset="0.723958" stop-color="#AC8035"/>
<stop offset="0.858442" stop-color="#A17631"/>
<stop offset="1" stop-color="#EADD81"/>
<stop offset="1" stop-color="#815A23"/>
</linearGradient>
<linearGradient id="paint20_linear" x1="75.0459" y1="35.4069" x2="84.9081" y2="22.6743" gradientUnits="userSpaceOnUse">
<stop stop-color="#815A23"/>
<stop offset="0.145833" stop-color="#AC8035"/>
<stop offset="0.286458" stop-color="#D9AF56"/>
<stop offset="0.4375" stop-color="#E1C96A"/>
<stop offset="0.583333" stop-color="#D9AF56"/>
<stop offset="0.723958" stop-color="#AC8035"/>
<stop offset="0.858442" stop-color="#A17631"/>
<stop offset="1" stop-color="#EADD81"/>
<stop offset="1" stop-color="#815A23"/>
</linearGradient>
<linearGradient id="paint21_linear" x1="70.7565" y1="25.7369" x2="80.2476" y2="13.4959" gradientUnits="userSpaceOnUse">
<stop stop-color="#815A23"/>
<stop offset="0.145833" stop-color="#AC8035"/>
<stop offset="0.286458" stop-color="#D9AF56"/>
<stop offset="0.4375" stop-color="#E1C96A"/>
<stop offset="0.583333" stop-color="#D9AF56"/>
<stop offset="0.723958" stop-color="#AC8035"/>
<stop offset="0.858442" stop-color="#A17631"/>
<stop offset="1" stop-color="#EADD81"/>
<stop offset="1" stop-color="#815A23"/>
</linearGradient>
<linearGradient id="paint22_linear" x1="64.7936" y1="18.3968" x2="74.2266" y2="6.29958" gradientUnits="userSpaceOnUse">
<stop stop-color="#815A23"/>
<stop offset="0.145833" stop-color="#AC8035"/>
<stop offset="0.286458" stop-color="#D9AF56"/>
<stop offset="0.4375" stop-color="#E1C96A"/>
<stop offset="0.583333" stop-color="#D9AF56"/>
<stop offset="0.723958" stop-color="#AC8035"/>
<stop offset="0.858442" stop-color="#A17631"/>
<stop offset="1" stop-color="#EADD81"/>
<stop offset="1" stop-color="#815A23"/>
</linearGradient>
<linearGradient id="paint23_linear" x1="59.0654" y1="13.7602" x2="67.7039" y2="3.01463" gradientUnits="userSpaceOnUse">
<stop stop-color="#815A23"/>
<stop offset="0.145833" stop-color="#AC8035"/>
<stop offset="0.286458" stop-color="#D9AF56"/>
<stop offset="0.4375" stop-color="#E1C96A"/>
<stop offset="0.583333" stop-color="#D9AF56"/>
<stop offset="0.723958" stop-color="#AC8035"/>
<stop offset="0.858442" stop-color="#A17631"/>
<stop offset="1" stop-color="#EADD81"/>
<stop offset="1" stop-color="#815A23"/>
</linearGradient>
<linearGradient id="paint24_linear" x1="52.9771" y1="9.87872" x2="60.3031" y2="0.770207" gradientUnits="userSpaceOnUse">
<stop stop-color="#815A23"/>
<stop offset="0.145833" stop-color="#AC8035"/>
<stop offset="0.286458" stop-color="#D9AF56"/>
<stop offset="0.4375" stop-color="#E1C96A"/>
<stop offset="0.583333" stop-color="#D9AF56"/>
<stop offset="0.723958" stop-color="#AC8035"/>
<stop offset="0.858442" stop-color="#A17631"/>
<stop offset="1" stop-color="#EADD81"/>
<stop offset="1" stop-color="#815A23"/>
</linearGradient>
<linearGradient id="paint25_linear" x1="47.3645" y1="7.15175" x2="53.9917" y2="-0.704656" gradientUnits="userSpaceOnUse">
<stop stop-color="#815A23"/>
<stop offset="0.145833" stop-color="#AC8035"/>
<stop offset="0.286458" stop-color="#D9AF56"/>
<stop offset="0.4375" stop-color="#E1C96A"/>
<stop offset="0.583333" stop-color="#D9AF56"/>
<stop offset="0.723958" stop-color="#AC8035"/>
<stop offset="0.858442" stop-color="#A17631"/>
<stop offset="1" stop-color="#EADD81"/>
<stop offset="1" stop-color="#815A23"/>
</linearGradient>
<clipPath id="clip0">
<rect width="88" height="83.954" fill="white" transform="matrix(-1 0 0 1 88 0)"/>
</clipPath>
</defs>
</svg>
