<svg width="35" height="35" viewBox="0 0 35 35" fill="none" xmlns="http://www.w3.org/2000/svg">
<g clip-path="url(#clip0)">
<path d="M34.5752 19.4893C34.3797 18.781 34.1956 18.1115 34.1956 17.5006C34.1956 16.8896 34.3797 16.2201 34.5752 15.5118C34.8864 14.3843 35.2075 13.218 34.8232 12.0844C34.4246 10.9051 33.431 10.1344 32.4701 9.39034C31.8941 8.94375 31.3501 8.52226 30.9971 8.05817C30.638 7.58494 30.3839 6.95347 30.1161 6.28472C29.6741 5.18611 29.2176 4.04946 28.1951 3.33582C27.1893 2.63283 25.9339 2.56512 24.722 2.50045C23.9657 2.46013 23.2506 2.42133 22.6518 2.23493C22.0919 2.0607 21.5121 1.69932 20.8989 1.31663C19.9121 0.700376 18.793 0.00195312 17.4988 0.00195312C16.2047 0.00195312 15.0856 0.700376 14.0988 1.31739C13.4856 1.70008 12.9074 2.06223 12.3466 2.23569C11.7471 2.42209 11.032 2.46089 10.2757 2.50121C9.06299 2.56664 7.80918 2.63359 6.80263 3.33658C5.7801 4.05022 5.32361 5.18611 4.88158 6.28472C4.61225 6.95347 4.35814 7.5857 3.99904 8.05893C3.64603 8.52454 3.10205 8.94603 2.52611 9.39339C1.56597 10.1382 0.573876 10.9074 0.175212 12.0851C-0.208997 13.2195 0.112065 14.3851 0.422475 15.5133C0.618003 16.2217 0.802119 16.8904 0.802119 17.5013C0.802119 18.1123 0.618003 18.7818 0.422475 19.4901C0.112065 20.6176 -0.208997 21.7839 0.175212 22.9191C0.573876 24.0968 1.56673 24.8675 2.52687 25.6116C3.10281 26.0574 3.64679 26.4796 3.99904 26.9437C4.3589 27.417 4.61301 28.0484 4.88158 28.718C5.32361 29.8166 5.78086 30.9532 6.80415 31.6684C7.80918 32.3698 9.06375 32.4368 10.2757 32.5015C11.032 32.5418 11.7471 32.5806 12.3459 32.767C12.9058 32.9412 13.4848 33.3026 14.0973 33.6845C15.0848 34.3 16.2039 34.9992 17.4988 34.9992C18.7937 34.9992 19.9137 34.3 20.902 33.6838C21.5144 33.3018 22.0926 32.9404 22.6533 32.7662C23.2521 32.5798 23.9673 32.541 24.7235 32.5007C25.9362 32.436 27.19 32.3691 28.1951 31.6676C29.2199 30.9524 29.6764 29.8143 30.1184 28.7149C30.387 28.0469 30.6403 27.4154 30.9979 26.9437C31.3509 26.4796 31.8949 26.0574 32.4708 25.6116C33.4317 24.8667 34.4246 24.0968 34.824 22.9183C35.2082 21.7832 34.8864 20.6176 34.5752 19.4893ZM33.3822 22.4306C33.1303 23.1747 32.3566 23.7742 31.538 24.4087C30.9103 24.8956 30.2606 25.3993 29.7858 26.0232C29.3042 26.6592 28.9999 27.4154 28.7055 28.1481C28.3304 29.0824 27.9759 29.9642 27.3238 30.4191C26.6741 30.8726 25.6873 30.9251 24.642 30.9806C23.8256 31.024 22.9804 31.0689 22.1998 31.3123C21.4534 31.5459 20.7626 31.9757 20.0954 32.3927C19.2014 32.9511 18.3577 33.4776 17.4988 33.4776C16.6398 33.4776 15.7968 32.9511 14.9029 32.3927C14.2364 31.9765 13.5463 31.5459 12.7992 31.3123C12.0186 31.0696 11.1734 31.024 10.357 30.9806C9.31168 30.9251 8.32415 30.8718 7.67518 30.4191C7.02393 29.9642 6.66863 29.0824 6.29355 28.1489C5.99911 27.4162 5.69403 26.6592 5.21168 26.0232C4.73769 25.3993 4.08796 24.8956 3.45953 24.408C2.64166 23.7734 1.86868 23.1747 1.61685 22.4306C1.38176 21.7375 1.62902 20.8413 1.88998 19.8933C2.10301 19.1181 2.32364 18.3177 2.32364 17.4998C2.32364 16.6819 2.10301 15.8823 1.88998 15.1071C1.62826 14.1591 1.38176 13.2636 1.61685 12.5705C1.86868 11.8265 2.6409 11.2277 3.45877 10.5932C4.0872 10.1055 4.73769 9.60109 5.21092 8.97646C5.69479 8.34043 5.99912 7.58266 6.29431 6.85C6.66863 5.91649 7.02316 5.03547 7.67366 4.58203C8.32339 4.12782 9.31168 4.07533 10.3578 4.01979C11.1734 3.97566 12.0186 3.93077 12.7985 3.68731C13.5463 3.45451 14.2372 3.02313 14.9052 2.6062C15.7976 2.05005 16.6406 1.52357 17.4988 1.52357C18.3569 1.52357 19.2007 2.05005 20.0939 2.60773C20.7619 3.02541 21.4519 3.45603 22.1998 3.68884C22.9796 3.93153 23.8241 3.97642 24.6405 4.02055C25.6866 4.07609 26.6741 4.13011 27.3238 4.58355C27.9751 5.03851 28.3296 5.91953 28.704 6.85152C28.9992 7.58494 29.3027 8.34195 29.7866 8.97799C30.2606 9.60185 30.9103 10.1055 31.538 10.5924C32.3566 11.2277 33.1303 11.8272 33.3822 12.5728C33.6173 13.2644 33.3692 14.1599 33.1083 15.1078C32.8945 15.8831 32.6739 16.6835 32.6739 17.5013C32.6739 18.3192 32.8937 19.1196 33.1083 19.8941C33.3701 20.8421 33.6173 21.7375 33.3822 22.4306Z" fill="url(#paint0_linear)"/>
<path d="M17.4995 6.08789C11.2069 6.08789 6.0874 11.2074 6.0874 17.5C6.0874 23.7927 11.2069 28.9122 17.4995 28.9122C23.7922 28.9122 28.9117 23.7927 28.9117 17.5C28.9117 11.2074 23.7922 6.08789 17.4995 6.08789ZM17.4995 27.3906C12.0461 27.3906 7.60902 22.9535 7.60902 17.5C7.60902 12.0466 12.0461 7.60951 17.4995 7.60951C20.3123 7.60951 22.848 8.79561 24.6512 10.687L17.4006 20.8902L13.4726 16.9621C13.1751 16.6647 12.6943 16.6647 12.3968 16.9621C12.0993 17.2596 12.0993 17.7404 12.3968 18.0379L16.9617 22.6028C17.1047 22.7466 17.2987 22.8257 17.4995 22.8257C17.5201 22.8257 17.5422 22.8249 17.5635 22.8227C17.7864 22.8044 17.9903 22.688 18.1196 22.5054L25.6493 11.9088C26.7449 13.5005 27.3901 15.4253 27.3901 17.5C27.3901 22.9535 22.953 27.3906 17.4995 27.3906Z" fill="url(#paint1_linear)"/>
</g>
<defs>
<linearGradient id="paint0_linear" x1="29.5307" y1="32.6265" x2="-0.626908" y2="-3.6292" gradientUnits="userSpaceOnUse">
<stop stop-color="#815A23"/>
<stop offset="0.145833" stop-color="#AC8035"/>
<stop offset="0.286458" stop-color="#D9AF56"/>
<stop offset="0.4375" stop-color="#E1C96A"/>
<stop offset="0.583333" stop-color="#D9AF56"/>
<stop offset="0.723958" stop-color="#AC8035"/>
<stop offset="0.858442" stop-color="#A17631"/>
<stop offset="1" stop-color="#EADD81"/>
<stop offset="1" stop-color="#815A23"/>
</linearGradient>
<linearGradient id="paint1_linear" x1="25.3454" y1="27.3648" x2="5.67709" y2="3.72125" gradientUnits="userSpaceOnUse">
<stop stop-color="#815A23"/>
<stop offset="0.145833" stop-color="#AC8035"/>
<stop offset="0.286458" stop-color="#D9AF56"/>
<stop offset="0.4375" stop-color="#E1C96A"/>
<stop offset="0.583333" stop-color="#D9AF56"/>
<stop offset="0.723958" stop-color="#AC8035"/>
<stop offset="0.858442" stop-color="#A17631"/>
<stop offset="1" stop-color="#EADD81"/>
<stop offset="1" stop-color="#815A23"/>
</linearGradient>
<clipPath id="clip0">
<rect width="35" height="35" fill="white"/>
</clipPath>
</defs>
</svg>
