<svg width="37" height="37" viewBox="0 0 37 37" fill="none" xmlns="http://www.w3.org/2000/svg">
<path d="M22.8167 21.584H22.1383C21.8832 21.5844 21.6549 21.4253 21.5673 21.1856C21.4921 20.9883 21.4113 20.7953 21.3243 20.6041C21.2163 20.3716 21.2656 20.0964 21.4477 19.9159L21.9311 19.4318C22.6489 18.7078 22.6475 17.5401 21.928 16.8178L20.1854 15.0751C19.4621 14.356 18.294 14.356 17.5707 15.0751L17.0872 15.5579C16.9064 15.7393 16.6316 15.7886 16.399 15.6813C16.2079 15.5943 16.0148 15.5135 15.8169 15.4346C15.576 15.3476 15.4157 15.1185 15.4167 14.8623V14.184C15.4167 13.1622 14.5884 12.334 13.5667 12.334H11.1C10.0783 12.334 9.25 13.1622 9.25 14.184V14.8623C9.25046 15.1175 9.09129 15.3457 8.85163 15.4334C8.6543 15.5086 8.46128 15.5894 8.27012 15.6763C8.03756 15.7838 7.76268 15.7346 7.58192 15.553L7.09783 15.0695C6.37464 14.3509 5.20698 14.3509 4.48378 15.0695L2.74108 16.8178C2.02205 17.541 2.02205 18.7092 2.74108 19.4324L3.22393 19.9159C3.406 20.0964 3.45534 20.3716 3.34727 20.6041C3.26032 20.7953 3.17953 20.9883 3.10368 21.1862C3.01542 21.4273 2.78502 21.5866 2.52833 21.584H1.85C0.82826 21.584 0 22.4122 0 23.434V25.9007C0 26.9224 0.82826 27.7507 1.85 27.7507H2.52833C2.78348 27.7502 3.01172 27.9094 3.09937 28.149C3.1746 28.3464 3.25538 28.5394 3.34233 28.7305C3.4504 28.963 3.40107 29.2383 3.219 29.4187L2.73553 29.9028C2.01696 30.626 2.01696 31.7937 2.73553 32.5169L4.47823 34.2596C5.20151 34.9786 6.36963 34.9786 7.0929 34.2596L7.57637 33.7767C7.7572 33.5953 8.03201 33.5461 8.26457 33.6534C8.45573 33.7403 8.64875 33.8211 8.8467 33.9001C9.08882 33.9861 9.25046 34.2154 9.25 34.4723V35.1507C9.25 36.1724 10.0783 37.0007 11.1 37.0007H13.5667C14.5884 37.0007 15.4167 36.1724 15.4167 35.1507V34.4723C15.4162 34.2172 15.5754 33.9889 15.815 33.9013C16.0124 33.826 16.2054 33.7453 16.3966 33.6583C16.6291 33.5508 16.904 33.6 17.0847 33.7817L17.5688 34.2651C18.293 34.9825 19.4604 34.9811 20.1829 34.262L21.9256 32.5193C22.6446 31.7961 22.6446 30.6279 21.9256 29.9047L21.4427 29.4212C21.2607 29.2407 21.2113 28.9655 21.3194 28.733C21.4063 28.5418 21.4871 28.3488 21.5661 28.1509C21.6531 27.91 21.8822 27.7497 22.1383 27.7507H22.8167C23.8384 27.7507 24.6667 26.9224 24.6667 25.9007V23.434C24.6667 22.4122 23.8384 21.584 22.8167 21.584ZM23.4333 25.9007C23.4333 26.2412 23.1572 26.5173 22.8167 26.5173H22.1383C21.3717 26.5202 20.6857 26.994 20.4117 27.71C20.3463 27.8826 20.2756 28.0526 20.1995 28.2199C19.8825 28.9199 20.0296 29.7428 20.5695 30.2895L21.0518 30.7723C21.2927 31.013 21.293 31.4035 21.0522 31.6444C21.0521 31.6446 21.0519 31.6447 21.0518 31.6449L19.3091 33.3876C19.0683 33.6283 18.6779 33.6283 18.4371 33.3876L17.9536 32.9048C17.4072 32.3643 16.5839 32.2172 15.8841 32.5348C15.717 32.6106 15.5468 32.6815 15.3754 32.7469C14.6599 33.0208 14.1864 33.7063 14.1833 34.4723V35.1507C14.1833 35.4912 13.9072 35.7673 13.5667 35.7673H11.1C10.7594 35.7673 10.4833 35.4912 10.4833 35.1507V34.4723C10.4805 33.7057 10.0066 33.0197 9.2907 32.7457C9.11803 32.6803 8.94806 32.6096 8.78072 32.5335C8.0808 32.2166 7.25794 32.3638 6.71118 32.9035L6.22833 33.3858C5.98768 33.6267 5.59718 33.6269 5.35621 33.3862C5.35606 33.3861 5.3559 33.3859 5.35575 33.3858L3.61305 31.6449C3.37232 31.4041 3.37232 31.0137 3.61305 30.7729L4.0959 30.2895C4.63587 29.7428 4.78294 28.9199 4.4659 28.2199C4.39005 28.0528 4.31913 27.8826 4.25377 27.7112C3.98043 26.995 3.29485 26.5207 2.52833 26.5173H1.85C1.50945 26.5173 1.23333 26.2412 1.23333 25.9007V23.434C1.23333 23.0934 1.50945 22.8173 1.85 22.8173H2.52833C3.29493 22.8145 3.98097 22.3406 4.255 21.6247C4.32037 21.452 4.39105 21.282 4.46713 21.1147C4.78418 20.4148 4.63702 19.5918 4.09713 19.0452L3.61243 18.5623C3.37147 18.3217 3.37124 17.9312 3.61197 17.6902C3.61213 17.69 3.61228 17.6899 3.61243 17.6897L5.35513 15.947C5.59594 15.7063 5.98629 15.7063 6.2271 15.947L6.71057 16.4299C7.25701 16.9703 8.08026 17.1175 8.7801 16.7999C8.94722 16.724 9.11742 16.6531 9.28885 16.5878C10.0053 16.3146 10.4799 15.629 10.4833 14.8623V14.184C10.4833 13.8434 10.7594 13.5673 11.1 13.5673H13.5667C13.9072 13.5673 14.1833 13.8434 14.1833 14.184V14.8623C14.1862 15.6289 14.66 16.315 15.376 16.589C15.5486 16.6544 15.7186 16.725 15.886 16.8011C16.5858 17.1187 17.409 16.9715 17.9555 16.4311L18.4383 15.9489C18.6801 15.7098 19.0692 15.7098 19.3109 15.9489L21.0536 17.6916C21.2943 17.9324 21.2943 18.3227 21.0536 18.5636L20.5708 19.047C20.0309 19.5937 19.8837 20.4166 20.2008 21.1166C20.2766 21.2837 20.3475 21.4539 20.4129 21.6253C20.6869 22.3407 21.3723 22.8142 22.1383 22.8173H22.8167C23.1572 22.8173 23.4333 23.0934 23.4333 23.434V25.9007Z" fill="url(#paint0_linear)"/>
<path d="M17.8706 24.4205C17.8645 24.2725 17.854 24.1251 17.8361 23.9784C17.8164 23.8205 17.793 23.6639 17.7603 23.5103C17.7387 23.4098 17.7103 23.3105 17.6832 23.2106C17.6487 23.0836 17.6098 22.9584 17.5666 22.8351C17.5364 22.7494 17.505 22.6643 17.4729 22.5798C17.3935 22.3823 17.3027 22.1895 17.2009 22.0026C17.1929 21.9884 17.188 21.973 17.18 21.9588C17.0196 21.6733 16.8338 21.4026 16.625 21.1503C16.6071 21.1281 16.5868 21.1072 16.5682 21.0856C16.4832 20.9851 16.3956 20.8876 16.3037 20.7945C16.2556 20.7446 16.205 20.6977 16.1545 20.6496C16.0928 20.5923 16.0311 20.5355 15.9695 20.4813C15.8946 20.4163 15.8184 20.3534 15.7407 20.2926L15.6395 20.2173C14.6853 19.5026 13.5252 19.1166 12.333 19.1172C12.2713 19.1172 12.2097 19.1264 12.148 19.1289C12.0166 19.1326 11.8847 19.14 11.7521 19.1536C11.6824 19.161 11.6121 19.169 11.5424 19.1789C11.3414 19.2053 11.1419 19.2426 10.9449 19.2905C7.97554 20.0578 6.19044 23.087 6.95773 26.0563C7.4634 28.013 8.99211 29.5405 10.9492 30.0445C10.9591 30.0445 10.9695 30.0476 10.98 30.0501C11.193 30.1032 11.4088 30.1444 11.6263 30.1734C11.77 30.1913 11.9137 30.195 12.058 30.2018C12.1542 30.2067 12.2429 30.2209 12.3435 30.2209C12.5192 30.2209 12.7017 30.2092 12.888 30.1907C12.9077 30.1907 12.9275 30.1851 12.9496 30.1827C13.0995 30.166 13.2512 30.1438 13.406 30.113C13.4676 30.1013 13.525 30.0859 13.5842 30.0723C13.6927 30.047 13.8006 30.0205 13.9116 29.9878C13.998 29.9619 14.0818 29.9317 14.1663 29.9021C14.2508 29.8725 14.3384 29.8404 14.4259 29.8071C14.5135 29.7738 14.5869 29.7356 14.6665 29.6986C14.7701 29.6511 14.873 29.6042 14.9748 29.5487H14.9785C15.554 29.2406 16.0856 28.8568 16.559 28.4073C16.6869 28.288 16.7981 28.1518 16.8895 28.0028C17.3708 27.2311 17.687 26.3682 17.8182 25.4682C17.8355 25.3492 17.8509 25.2302 17.8602 25.1087C17.8688 24.9971 17.875 24.8861 17.8774 24.7751C17.8774 24.74 17.8824 24.7067 17.8824 24.6715C17.883 24.5846 17.8743 24.5044 17.8706 24.4205ZM16.6416 24.8244C16.6416 24.8756 16.6373 24.9268 16.6342 24.9774C16.6231 25.1266 16.604 25.2758 16.5787 25.4257C16.3483 26.7078 15.5522 27.8178 14.4118 28.4474C14.3353 28.4875 14.2601 28.5251 14.1848 28.5596L14.1336 28.5843C13.7754 28.7469 13.3972 28.8614 13.0089 28.9247C12.9817 28.929 12.954 28.9339 12.9262 28.9376C12.8491 28.9487 12.7733 28.958 12.698 28.9648C12.5988 28.9734 12.4989 28.9783 12.3971 28.9802C12.354 28.9802 12.3114 28.9802 12.2682 28.9802C12.1223 28.9785 11.9766 28.9695 11.8316 28.953L11.7576 28.9444C11.588 28.9222 11.4199 28.8905 11.2538 28.8494C8.94425 28.2583 7.5512 25.9068 8.14227 23.5972C8.53285 22.0711 9.72379 20.8789 11.2495 20.4868V20.4862C11.6038 20.3969 11.9676 20.3512 12.333 20.3505C12.5093 20.3515 12.6854 20.3635 12.8602 20.3863C12.9071 20.3918 12.9533 20.4005 12.9996 20.4073C13.1328 20.4282 13.2648 20.4547 13.3949 20.488C13.4374 20.4991 13.48 20.509 13.5219 20.5207C13.8498 20.6154 14.1655 20.7483 14.4623 20.9166C14.5098 20.9444 14.5561 20.9734 14.6029 21.0023C14.7004 21.064 14.7947 21.1257 14.8878 21.196C14.9378 21.2324 14.9884 21.2681 15.0365 21.307C15.1575 21.4036 15.2733 21.5065 15.3836 21.6153C15.4274 21.6597 15.4675 21.7084 15.51 21.7547C15.581 21.8318 15.65 21.9107 15.716 21.9939C15.7617 22.0513 15.8054 22.1105 15.8486 22.1703C15.9103 22.2591 15.9719 22.3516 16.0274 22.4453C16.0583 22.4965 16.0891 22.5465 16.1206 22.5989C16.2001 22.7453 16.2709 22.8962 16.3327 23.0509C16.3574 23.1126 16.3783 23.1742 16.4005 23.2359C16.4406 23.3494 16.4751 23.4641 16.5054 23.58C16.5208 23.6417 16.538 23.6966 16.551 23.7564C16.587 23.923 16.6131 24.0917 16.6293 24.2614C16.633 24.3064 16.633 24.3521 16.6361 24.3971C16.6447 24.5389 16.6472 24.6814 16.6416 24.8244Z" fill="url(#paint1_linear)"/>
<path d="M35.1497 12.95H33.2103C32.9517 12.9526 32.7203 12.7897 32.6355 12.5455C32.4443 11.9727 32.2129 11.414 31.943 10.8737C31.8285 10.6404 31.8762 10.3598 32.0614 10.1775L33.4366 8.80045C34.1584 8.0781 34.1584 6.90751 33.4366 6.18517L30.8145 3.56742C30.0922 2.84561 28.9216 2.84561 28.1992 3.56742L26.8247 4.94135C26.6425 5.1265 26.3624 5.17445 26.1291 5.06037C25.5887 4.78911 25.0299 4.55647 24.4567 4.36415C24.2114 4.28021 24.0474 4.04865 24.0497 3.78942V1.85C24.0497 0.82826 23.2214 0 22.1997 0H18.4997C17.4779 0 16.6497 0.82826 16.6497 1.85V3.78942C16.6523 4.04803 16.4895 4.27936 16.2452 4.36415C15.6723 4.5564 15.1136 4.78888 14.5734 5.05975C14.34 5.17468 14.0594 5.12697 13.8772 4.94135L12.5001 3.56618C11.7769 2.84646 10.608 2.84646 9.88485 3.56618L7.26772 6.18332C6.54553 6.90574 6.54553 8.07679 7.26772 8.79922L9.28977 10.825C9.53435 11.0619 9.92478 11.0558 10.1617 10.8111C10.3929 10.5724 10.3934 10.1935 10.163 9.95423L8.13969 7.9291C7.89895 7.68829 7.89895 7.29794 8.13969 7.05713L10.7568 4.44C10.9976 4.19927 11.388 4.19927 11.6288 4.44L13.0064 5.81517C13.5638 6.37587 14.4179 6.51601 15.1253 6.16297C15.6138 5.91838 16.1188 5.70841 16.6367 5.53458C17.3843 5.28152 17.8863 4.57867 17.883 3.78942V1.85C17.883 1.50945 18.1591 1.23333 18.4997 1.23333H22.1997C22.5402 1.23333 22.8164 1.50945 22.8164 1.85V3.78942C22.8132 4.57852 23.3152 5.28113 24.0626 5.53397C24.5808 5.70787 25.0861 5.918 25.5747 6.16297C26.2822 6.51416 27.1352 6.37387 27.693 5.81455L29.0706 4.44C29.3114 4.19927 29.7017 4.19927 29.9426 4.44L32.5597 7.05775C32.8 7.29848 32.8 7.68837 32.5597 7.9291L31.1845 9.30673C30.6244 9.86443 30.4843 10.7181 30.8367 11.4256C31.0813 11.9141 31.2913 12.4191 31.4651 12.937C31.718 13.6848 32.4209 14.1867 33.2103 14.1833H35.1497C35.4902 14.1833 35.7663 14.4594 35.7663 14.8V18.5C35.7663 18.8406 35.4902 19.1167 35.1497 19.1167H33.2103C32.4212 19.1135 31.7185 19.6155 31.4657 20.3629C31.2919 20.8811 31.0817 21.3864 30.8367 21.875C30.4849 22.5825 30.6253 23.4357 31.1851 23.9933L32.5603 25.3709C32.801 25.6117 32.801 26.0021 32.5603 26.2429L29.9419 28.86C29.7012 29.1003 29.3113 29.1003 29.0706 28.86L27.0442 26.8379C26.8073 26.5933 26.4168 26.5871 26.1723 26.8241C25.9276 27.061 25.9214 27.4515 26.1584 27.696C26.1633 27.7011 26.1684 27.7062 26.1735 27.7112L28.1992 29.7332C28.9216 30.455 30.0922 30.455 30.8145 29.7332L33.4317 27.1167C34.1538 26.3943 34.1538 25.2232 33.4317 24.5008L32.0583 23.125C31.8733 22.9428 31.8255 22.6627 31.9393 22.4294C32.2106 21.889 32.4432 21.3302 32.6355 20.757C32.7195 20.5117 32.951 20.3477 33.2103 20.35H35.1497C36.1714 20.35 36.9997 19.5217 36.9997 18.5V14.8C36.9997 13.7783 36.1714 12.95 35.1497 12.95Z" fill="url(#paint2_linear)"/>
<path d="M26.0182 10.9812C22.8857 7.85523 17.8139 7.85523 14.6814 10.9812C14.4448 11.2262 14.4516 11.6166 14.6966 11.8532C14.9355 12.0839 15.3144 12.0839 15.5533 11.8532C18.1846 9.18638 22.4794 9.15763 25.1462 11.7889C27.813 14.4201 27.8418 18.715 25.2105 21.3817C25.1892 21.4033 25.1678 21.4247 25.1462 21.446C24.9013 21.6827 24.8945 22.073 25.1311 22.318C25.3678 22.563 25.7581 22.5697 26.0031 22.3331C26.0082 22.3282 26.0133 22.3231 26.0182 22.318C29.1442 19.1855 29.1442 14.1137 26.0182 10.9812Z" fill="url(#paint3_linear)"/>
<defs>
<linearGradient id="paint0_linear" x1="20.8125" y1="35.3283" x2="-0.443439" y2="9.77631" gradientUnits="userSpaceOnUse">
<stop stop-color="#815A23"/>
<stop offset="0.145833" stop-color="#AC8035"/>
<stop offset="0.286458" stop-color="#D9AF56"/>
<stop offset="0.4375" stop-color="#E1C96A"/>
<stop offset="0.583333" stop-color="#D9AF56"/>
<stop offset="0.723958" stop-color="#AC8035"/>
<stop offset="0.858442" stop-color="#A17631"/>
<stop offset="1" stop-color="#EADD81"/>
<stop offset="1" stop-color="#815A23"/>
</linearGradient>
<linearGradient id="paint1_linear" x1="16.1476" y1="29.4681" x2="6.57906" y2="17.9668" gradientUnits="userSpaceOnUse">
<stop stop-color="#815A23"/>
<stop offset="0.145833" stop-color="#AC8035"/>
<stop offset="0.286458" stop-color="#D9AF56"/>
<stop offset="0.4375" stop-color="#E1C96A"/>
<stop offset="0.583333" stop-color="#D9AF56"/>
<stop offset="0.723958" stop-color="#AC8035"/>
<stop offset="0.858442" stop-color="#A17631"/>
<stop offset="1" stop-color="#EADD81"/>
<stop offset="1" stop-color="#815A23"/>
</linearGradient>
<linearGradient id="paint2_linear" x1="32.2694" y1="28.222" x2="6.18087" y2="-3.13834" gradientUnits="userSpaceOnUse">
<stop stop-color="#815A23"/>
<stop offset="0.145833" stop-color="#AC8035"/>
<stop offset="0.286458" stop-color="#D9AF56"/>
<stop offset="0.4375" stop-color="#E1C96A"/>
<stop offset="0.583333" stop-color="#D9AF56"/>
<stop offset="0.723958" stop-color="#AC8035"/>
<stop offset="0.858442" stop-color="#A17631"/>
<stop offset="1" stop-color="#EADD81"/>
<stop offset="1" stop-color="#815A23"/>
</linearGradient>
<linearGradient id="paint3_linear" x1="26.1979" y1="21.5659" x2="14.2438" y2="7.21145" gradientUnits="userSpaceOnUse">
<stop stop-color="#815A23"/>
<stop offset="0.145833" stop-color="#AC8035"/>
<stop offset="0.286458" stop-color="#D9AF56"/>
<stop offset="0.4375" stop-color="#E1C96A"/>
<stop offset="0.583333" stop-color="#D9AF56"/>
<stop offset="0.723958" stop-color="#AC8035"/>
<stop offset="0.858442" stop-color="#A17631"/>
<stop offset="1" stop-color="#EADD81"/>
<stop offset="1" stop-color="#815A23"/>
</linearGradient>
</defs>
</svg>
