<svg width="33" height="33" viewBox="0 0 33 33" fill="none" xmlns="http://www.w3.org/2000/svg">
<path d="M0.6 20.4931C0.599626 21.017 0.985608 21.4608 1.50392 21.5336L1.50516 21.5337L14.2317 23.2887L14.8 23.3671V22.7934V22.0004C14.8 21.3653 15.3149 20.8504 15.95 20.8504H17.05C17.6851 20.8504 18.2 21.3653 18.2 22.0004V22.7934V23.3671L18.7683 23.2887L31.3426 21.5547L31.3428 21.5547L31.4951 21.5338L31.4971 21.5335L31.9 20.4933H32.4V20.4928V8.25039C32.4 7.67051 31.9299 7.20039 31.35 7.20039H1.65C1.07012 7.20039 0.6 7.67051 0.6 8.25039V20.4931ZM0.6 20.4931C0.6 20.493 0.6 20.4929 0.6 20.4928L1.1 20.4933H0.6V20.4931ZM23.7 6.60039V7.10039H24.2H31.35C31.9851 7.10039 32.5 7.61533 32.5 8.25039L32.5 20.491C32.5 20.4912 32.5 20.4915 32.5 20.4917C32.4974 20.9786 32.1903 21.4119 31.7318 21.5757L31.4 21.6943V22.0466V29.7004C31.4 30.3355 30.8851 30.8504 30.25 30.8504H2.75C2.11494 30.8504 1.6 30.3355 1.6 29.7004V22.046V21.6936L1.26807 21.5751C0.809847 21.4116 0.502911 20.9788 0.5 20.4919V8.25039C0.5 7.61533 1.01494 7.10039 1.65 7.10039H8.8H9.3V6.60039V4.40101C9.30154 3.15863 10.308 2.15209 11.5503 2.15039H21.4497C22.692 2.15209 23.6985 3.15863 23.7 4.40101V6.60039ZM23.1 7.10039H23.6V6.60039V4.40039C23.6 3.21304 22.6373 2.25039 21.45 2.25039H11.55C10.3627 2.25039 9.4 3.21304 9.4 4.40039V6.60039V7.10039H9.9H11H11.5V6.60039V4.40039C11.5 4.3728 11.5224 4.35039 11.55 4.35039H21.45C21.4776 4.35039 21.5 4.3728 21.5 4.40039V6.60039V7.10039H22H23.1ZM20.9 7.10039H21.4V6.60039V4.95039V4.45039H20.9H12.1H11.6V4.95039V6.60039V7.10039H12.1H20.9ZM2.26831 21.7398L1.7 21.6614V22.2351V29.7004C1.7 30.2803 2.17012 30.7504 2.75 30.7504H30.25C30.8299 30.7504 31.3 30.2803 31.3 29.7004V22.2351V21.6614L30.7317 21.7398L18.6317 23.4086L18.2 23.4681V23.9039V25.3004C18.2 25.9355 17.6851 26.4504 17.05 26.4504H15.95C15.3149 26.4504 14.8 25.9355 14.8 25.3004V23.9039V23.4681L14.3683 23.4086L2.26831 21.7398ZM17.05 26.3504C17.6299 26.3504 18.1 25.8803 18.1 25.3004V22.0004C18.1 21.4205 17.6299 20.9504 17.05 20.9504H15.95C15.3701 20.9504 14.9 21.4205 14.9 22.0004V25.3004C14.9 25.8803 15.3701 26.3504 15.95 26.3504H17.05Z" fill="url(#paint0_linear)" stroke="url(#paint1_linear)"/>
<defs>
<linearGradient id="paint0_linear" x1="27.8437" y1="29.3368" x2="2.86906" y2="-4.02135" gradientUnits="userSpaceOnUse">
<stop stop-color="#815A23"/>
<stop offset="0.145833" stop-color="#AC8035"/>
<stop offset="0.286458" stop-color="#D9AF56"/>
<stop offset="0.4375" stop-color="#E1C96A"/>
<stop offset="0.583333" stop-color="#D9AF56"/>
<stop offset="0.723958" stop-color="#AC8035"/>
<stop offset="0.858442" stop-color="#A17631"/>
<stop offset="1" stop-color="#EADD81"/>
<stop offset="1" stop-color="#815A23"/>
</linearGradient>
<linearGradient id="paint1_linear" x1="27.8437" y1="29.3368" x2="2.86906" y2="-4.02135" gradientUnits="userSpaceOnUse">
<stop stop-color="#815A23"/>
<stop offset="0.145833" stop-color="#AC8035"/>
<stop offset="0.286458" stop-color="#D9AF56"/>
<stop offset="0.4375" stop-color="#E1C96A"/>
<stop offset="0.583333" stop-color="#D9AF56"/>
<stop offset="0.723958" stop-color="#AC8035"/>
<stop offset="0.858442" stop-color="#A17631"/>
<stop offset="1" stop-color="#EADD81"/>
<stop offset="1" stop-color="#815A23"/>
</linearGradient>
</defs>
</svg>
